<?xml version="1.0" encoding="UTF-8" standalone="no"?>
<svg
   version="1.1"
   width="220.69495"
   height="220.69501"
   viewBox="0 0 220.69495 220.69501"
   id="svg70"
   sodipodi:docname="icon.svg"
   inkscape:version="1.2 (dc2aedaf03, 2022-05-15)"
   xmlns:inkscape="http://www.inkscape.org/namespaces/inkscape"
   xmlns:sodipodi="http://sodipodi.sourceforge.net/DTD/sodipodi-0.dtd"
   xmlns="http://www.w3.org/2000/svg"
   xmlns:svg="http://www.w3.org/2000/svg">
  <sodipodi:namedview
     id="namedview72"
     pagecolor="#ffffff"
     bordercolor="#000000"
     borderopacity="0.25"
     inkscape:showpageshadow="2"
     inkscape:pageopacity="0.0"
     inkscape:pagecheckerboard="0"
     inkscape:deskcolor="#d1d1d1"
     showgrid="false"
     inkscape:zoom="1.9307957"
     inkscape:cx="82.349467"
     inkscape:cy="131.81094"
     inkscape:window-width="1920"
     inkscape:window-height="1017"
     inkscape:window-x="-8"
     inkscape:window-y="-8"
     inkscape:window-maximized="1"
     inkscape:current-layer="svg70" />
  <defs
     id="defs42">
    <linearGradient
       x1="184.06714"
       y1="262.99951"
       x2="290.08374"
       y2="262.99951"
       gradientUnits="userSpaceOnUse"
       id="color-1"
       gradientTransform="translate(0,-35.98499)">
      <stop
         offset="0"
         stop-color="#6c47d2"
         id="stop2" />
      <stop
         offset="1"
         stop-color="#1217a2"
         id="stop4" />
    </linearGradient>
    <radialGradient
       cx="236.16768"
       cy="261.5643"
       r="69.306488"
       gradientUnits="userSpaceOnUse"
       id="color-2"
       gradientTransform="translate(0,-35.98499)">
      <stop
         offset="0"
         stop-color="#e8e8e8"
         id="stop7" />
      <stop
         offset="1"
         stop-color="#e8e8e8"
         stop-opacity="0"
         id="stop9" />
    </radialGradient>
    <radialGradient
       cx="235.41089"
       cy="264.59586"
       r="54.83984"
       gradientUnits="userSpaceOnUse"
       id="color-3"
       gradientTransform="translate(0,-35.98499)">
      <stop
         offset="0"
         stop-color="#000000"
         stop-opacity="0.6549"
         id="stop12" />
      <stop
         offset="1"
         stop-color="#000000"
         stop-opacity="0"
         id="stop14" />
    </radialGradient>
    <radialGradient
       cx="252.25957"
       cy="254.7532"
       r="48.14502"
       gradientUnits="userSpaceOnUse"
       id="color-4"
       gradientTransform="translate(0,-35.98499)">
      <stop
         offset="0"
         stop-color="#1421d7"
         id="stop17" />
      <stop
         offset="1"
         stop-color="#1421d7"
         stop-opacity="0"
         id="stop19" />
    </radialGradient>
    <radialGradient
       cx="224.20828"
       cy="257.70602"
       r="48.14502"
       gradientUnits="userSpaceOnUse"
       id="color-5"
       gradientTransform="translate(0,-35.98499)">
      <stop
         offset="0"
         stop-color="#6540e4"
         id="stop22" />
      <stop
         offset="1"
         stop-color="#6540e4"
         stop-opacity="0"
         id="stop24" />
    </radialGradient>
    <radialGradient
       cx="237.78526"
       cy="289.94778"
       r="55.75853"
       gradientUnits="userSpaceOnUse"
       id="color-6"
       gradientTransform="translate(0,-35.98499)">
      <stop
         offset="0"
         stop-color="#8c5dde"
         id="stop27" />
      <stop
         offset="1"
         stop-color="#8c5dde"
         stop-opacity="0"
         id="stop29" />
    </radialGradient>
    <linearGradient
       x1="237.22884"
       y1="249.92154"
       x2="237.22884"
       y2="298.11926"
       gradientUnits="userSpaceOnUse"
       id="color-7"
       gradientTransform="translate(0,-35.98499)">
      <stop
         offset="0"
         stop-color="#bb41e8"
         stop-opacity="0.56471"
         id="stop32" />
      <stop
         offset="1"
         stop-color="#1c24de"
         id="stop34" />
    </linearGradient>
    <linearGradient
       x1="239.0282"
       y1="245.53754"
       x2="239.0282"
       y2="292.22775"
       gradientUnits="userSpaceOnUse"
       id="color-8"
       gradientTransform="translate(0,-35.98499)">
      <stop
         offset="0"
         stop-color="#bd4ae0"
         stop-opacity="0.64706"
         id="stop37" />
      <stop
         offset="1"
         stop-color="#8c34e3"
         stop-opacity="0.72549"
         id="stop39" />
    </linearGradient>
  </defs>
  <g
     transform="translate(-126.86593,-156.27278)"
     id="g68">
    <g
       data-paper-data="{&quot;isPaintingLayer&quot;:true}"
       fill-rule="nonzero"
       stroke-linejoin="miter"
       stroke-miterlimit="10"
       stroke-dasharray="none"
       stroke-dashoffset="0"
       style="mix-blend-mode:normal"
       id="g66">
      <g
         stroke="none"
         stroke-linecap="butt"
         id="g52">
        <path
           d="m 194.88699,230.9103 c 17.72233,-23.30002 50.97759,-27.82161 74.27761,-10.09929 23.30004,17.72233 27.82161,50.97759 10.09929,74.27763 -17.72233,23.30004 -50.97758,27.82161 -74.27761,10.09927 -23.30002,-17.72233 -27.82162,-50.97759 -10.09927,-74.27761 z"
           fill="url(#color-1)"
           stroke-width="0"
           id="path44"
           style="fill:url(#color-1)" />
        <g
           id="g50">
          <path
             d="m 166.86118,261.5643 c 0,-38.27692 31.02959,-69.30652 69.30653,-69.30652 38.27692,0 69.30649,31.02959 69.30649,69.30654 0,38.27692 -31.02956,69.30653 -69.30649,69.30653 -38.27692,0 -69.30652,-31.02959 -69.30652,-69.30652 z"
             fill="url(#color-2)"
             stroke-width="NaN"
             id="path46"
             style="fill:url(#color-2)" />
          <path
             d="m 240.13225,209.96291 c 30.17297,2.60754 52.51914,29.18139 49.91161,59.35434 -2.60754,30.17297 -29.18139,52.51914 -59.35434,49.91161 -30.17297,-2.60754 -52.51914,-29.18139 -49.91161,-59.35434 2.60754,-30.17297 29.18139,-52.51914 59.35434,-49.91161 z"
             fill="url(#color-3)"
             stroke-width="0"
             id="path48"
             style="fill:url(#color-3)" />
        </g>
      </g>
      <g
         id="g64">
        <path
           d="m 204.11459,254.75321 c 0,-26.58978 21.55524,-48.14502 48.14502,-48.14502 26.58978,0 48.14502,21.55524 48.14502,48.14502 0,26.58978 -21.55524,48.14503 -48.14502,48.14503 -26.58978,0 -48.14502,-21.55526 -48.14502,-48.14503 z"
           fill="url(#color-4)"
           stroke="none"
           stroke-width="NaN"
           stroke-linecap="butt"
           id="path54"
           style="fill:url(#color-4)" />
        <path
           d="m 176.06329,257.70601 c 0,-26.58978 21.55524,-48.14503 48.14502,-48.14503 26.58978,0 48.14502,21.55526 48.14502,48.14503 0,26.58978 -21.55524,48.14502 -48.14502,48.14502 -26.58978,0 -48.14502,-21.55524 -48.14502,-48.14502 z"
           fill="url(#color-5)"
           stroke="none"
           stroke-width="NaN"
           stroke-linecap="butt"
           id="path56"
           style="fill:url(#color-5)" />
        <path
           d="m 182.02668,289.94777 c 0,-30.79461 24.96394,-55.75855 55.75855,-55.75855 30.79461,0 55.75853,24.96395 55.75853,55.75855 0,30.79461 -24.96393,55.75853 -55.75853,55.75853 -30.79461,0 -55.75855,-24.96393 -55.75855,-55.75853 z"
           fill="url(#color-6)"
           stroke="none"
           stroke-width="NaN"
           stroke-linecap="butt"
           id="path58"
           style="fill:url(#color-6)" />
        <path
           d="m 293.8346,251.37797 c 5.96434,-0.20941 41.10361,-4.66125 40.20951,3.11875 -0.98132,8.53845 -71.4405,28.47838 -92.95461,33.00438 -18.05196,3.79767 -99.9893,16.53082 -100.69272,7.36972 0.55957,-9.38963 22.50169,-13.28887 34.35039,-18.44315"
           fill="none"
           stroke="url(#color-7)"
           stroke-width="27"
           stroke-linecap="round"
           id="path60"
           style="stroke:url(#color-7)" />
        <path
           d="m 296.34158,246.94844 c 6.03891,-0.20286 41.61745,-4.51545 40.71217,3.0212 -0.99359,8.27138 -72.33357,27.58762 -94.11664,31.97206 -18.27763,3.67889 -101.23928,16.01376 -101.95149,7.1392 0.56656,-9.09593 22.78299,-12.87321 34.7798,-17.86627"
           fill="none"
           stroke="url(#color-8)"
           stroke-width="12"
           stroke-linecap="round"
           id="path62"
           style="stroke:url(#color-8)" />
      </g>
    </g>
  </g>
</svg>
