<svg version="1.1" xmlns="http://www.w3.org/2000/svg" xmlns:xlink="http://www.w3.org/1999/xlink" width="220.69495" height="153.44852" viewBox="0,0,220.69495,153.44852"><defs><linearGradient x1="184.06714" y1="262.99951" x2="290.08375" y2="262.99951" gradientUnits="userSpaceOnUse" id="color-1"><stop offset="0" stop-color="#6c47d2"/><stop offset="1" stop-color="#1217a2"/></linearGradient><radialGradient cx="236.16768" cy="261.5643" r="69.30649" gradientUnits="userSpaceOnUse" id="color-2"><stop offset="0" stop-color="#e8e8e8"/><stop offset="1" stop-color="#e8e8e8" stop-opacity="0"/></radialGradient><radialGradient cx="235.41089" cy="264.59587" r="54.83984" gradientUnits="userSpaceOnUse" id="color-3"><stop offset="0" stop-color="#000000" stop-opacity="0.6549"/><stop offset="1" stop-color="#000000" stop-opacity="0"/></radialGradient><radialGradient cx="252.25956" cy="254.75321" r="48.14502" gradientUnits="userSpaceOnUse" id="color-4"><stop offset="0" stop-color="#1421d7"/><stop offset="1" stop-color="#1421d7" stop-opacity="0"/></radialGradient><radialGradient cx="224.20828" cy="257.70601" r="48.14502" gradientUnits="userSpaceOnUse" id="color-5"><stop offset="0" stop-color="#6540e4"/><stop offset="1" stop-color="#6540e4" stop-opacity="0"/></radialGradient><radialGradient cx="237.78526" cy="289.94777" r="55.75853" gradientUnits="userSpaceOnUse" id="color-6"><stop offset="0" stop-color="#8c5dde"/><stop offset="1" stop-color="#8c5dde" stop-opacity="0"/></radialGradient><linearGradient x1="237.22883" y1="249.92154" x2="237.22883" y2="298.11926" gradientUnits="userSpaceOnUse" id="color-7"><stop offset="0" stop-color="#bb41e8" stop-opacity="0.56471"/><stop offset="1" stop-color="#1c24de"/></linearGradient><linearGradient x1="239.0282" y1="245.53754" x2="239.0282" y2="292.22775" gradientUnits="userSpaceOnUse" id="color-8"><stop offset="0" stop-color="#bd4ae0" stop-opacity="0.64706"/><stop offset="1" stop-color="#8c34e3" stop-opacity="0.72549"/></linearGradient></defs><g transform="translate(-126.86593,-192.25777)"><g data-paper-data="{&quot;isPaintingLayer&quot;:true}" fill-rule="nonzero" stroke-linejoin="miter" stroke-miterlimit="10" stroke-dasharray="" stroke-dashoffset="0" style="mix-blend-mode: normal"><g stroke="none" stroke-linecap="butt"><path d="M194.88699,230.9103c17.72233,-23.30002 50.97759,-27.82161 74.27761,-10.09929c23.30004,17.72233 27.82161,50.97759 10.09929,74.27763c-17.72233,23.30004 -50.97758,27.82161 -74.27761,10.09927c-23.30002,-17.72233 -27.82162,-50.97759 -10.09927,-74.27761z" fill="url(#color-1)" stroke-width="0"/><g><path d="M166.86118,261.5643c0,-38.27692 31.02959,-69.30652 69.30653,-69.30652c38.27692,0 69.30649,31.02959 69.30649,69.30654c0,38.27692 -31.02956,69.30653 -69.30649,69.30653c-38.27692,0 -69.30652,-31.02959 -69.30652,-69.30652z" fill="url(#color-2)" stroke-width="NaN"/><path d="M240.13225,209.96291c30.17297,2.60754 52.51914,29.18139 49.91161,59.35434c-2.60754,30.17297 -29.18139,52.51914 -59.35434,49.91161c-30.17297,-2.60754 -52.51914,-29.18139 -49.91161,-59.35434c2.60754,-30.17297 29.18139,-52.51914 59.35434,-49.91161z" fill="url(#color-3)" stroke-width="0"/></g></g><g><path d="M204.11459,254.75321c0,-26.58978 21.55524,-48.14502 48.14502,-48.14502c26.58978,0 48.14502,21.55524 48.14502,48.14502c0,26.58978 -21.55524,48.14503 -48.14502,48.14503c-26.58978,0 -48.14502,-21.55526 -48.14502,-48.14503z" fill="url(#color-4)" stroke="none" stroke-width="NaN" stroke-linecap="butt"/><path d="M176.06329,257.70601c0,-26.58978 21.55524,-48.14503 48.14502,-48.14503c26.58978,0 48.14502,21.55526 48.14502,48.14503c0,26.58978 -21.55524,48.14502 -48.14502,48.14502c-26.58978,0 -48.14502,-21.55524 -48.14502,-48.14502z" fill="url(#color-5)" stroke="none" stroke-width="NaN" stroke-linecap="butt"/><path d="M182.02668,289.94777c0,-30.79461 24.96394,-55.75855 55.75855,-55.75855c30.79461,0 55.75853,24.96395 55.75853,55.75855c0,30.79461 -24.96393,55.75853 -55.75853,55.75853c-30.79461,0 -55.75855,-24.96393 -55.75855,-55.75853z" fill="url(#color-6)" stroke="none" stroke-width="NaN" stroke-linecap="butt"/><path d="M293.8346,251.37797c5.96434,-0.20941 41.10361,-4.66125 40.20951,3.11875c-0.98132,8.53845 -71.4405,28.47838 -92.95461,33.00438c-18.05196,3.79767 -99.9893,16.53082 -100.69272,7.36972c0.55957,-9.38963 22.50169,-13.28887 34.35039,-18.44315" fill="none" stroke="url(#color-7)" stroke-width="27" stroke-linecap="round"/><path d="M296.34158,246.94844c6.03891,-0.20286 41.61745,-4.51545 40.71217,3.0212c-0.99359,8.27138 -72.33357,27.58762 -94.11664,31.97206c-18.27763,3.67889 -101.23928,16.01376 -101.95149,7.1392c0.56656,-9.09593 22.78299,-12.87321 34.7798,-17.86627" fill="none" stroke="url(#color-8)" stroke-width="12" stroke-linecap="round"/></g></g></g></svg>